<svg id="Layer_1" data-name="Layer 1" xmlns="http://www.w3.org/2000/svg" xmlns:xlink="http://www.w3.org/1999/xlink" viewBox="0 0 820.96 588.75"><defs><style>.cls-1{fill:url(#linear-gradient);}.cls-2{fill:url(#linear-gradient-2);}.cls-3{fill:#fff;}.cls-4,.cls-5{stroke-miterlimit:10;}.cls-4{fill:url(#linear-gradient-3);stroke:url(#linear-gradient-4);}.cls-5{fill:url(#linear-gradient-5);stroke:url(#linear-gradient-6);}</style><linearGradient id="linear-gradient" x1="246.8" y1="313.9" x2="829.97" y2="309.27" gradientUnits="userSpaceOnUse"><stop offset="0" stop-color="#927333"/><stop offset="0.23" stop-color="#deb838"/><stop offset="1" stop-color="#fff200"/></linearGradient><linearGradient id="linear-gradient-2" x1="247.71" y1="428.65" x2="830.88" y2="424.02" xlink:href="#linear-gradient"/><linearGradient id="linear-gradient-3" x1="249.98" y1="713.96" x2="833.15" y2="709.33" gradientUnits="userSpaceOnUse"><stop offset="0" stop-color="#dfc32d"/><stop offset="0.53" stop-color="#edcb19"/><stop offset="1" stop-color="#d0b72e"/></linearGradient><linearGradient id="linear-gradient-4" x1="525.87" y1="711.67" x2="551.21" y2="711.67" gradientUnits="userSpaceOnUse"><stop offset="0" stop-color="#f8a819"/><stop offset="0.53" stop-color="#ebc231"/><stop offset="1" stop-color="#f68820"/></linearGradient><linearGradient id="linear-gradient-5" x1="249.54" y1="658.74" x2="832.71" y2="654.11" xlink:href="#linear-gradient-3"/><linearGradient id="linear-gradient-6" x1="355.95" y1="656.55" x2="721.13" y2="656.55" xlink:href="#linear-gradient-4"/></defs><path class="cls-1" d="M709.77,404.38a35.59,35.59,0,0,0,8.86-2,40.86,40.86,0,0,0,8-3.84,43.17,43.17,0,0,0,19.56-28.5,42.36,42.36,0,0,0-.41-17.62,48.83,48.83,0,0,0-7.1-15.77,51.43,51.43,0,0,0-26.82-20.37,48.9,48.9,0,0,0-15.67-2.53,52.67,52.67,0,0,0-11.92,1.38c.2-.27.39-.55.58-.84a75.46,75.46,0,0,0,10.76-24.17,63.54,63.54,0,0,0,.59-26.76,65.5,65.5,0,0,0-29.76-43.22,60.66,60.66,0,0,0-12.11-5.79,28.71,28.71,0,0,0-4.51-1.42c-.69-.17-1.37-.34-2.16-.57l-1.18-.22a51.18,51.18,0,0,0-5.57-.82c-1.62-.14-3.28-.22-4.91-.22a54.57,54.57,0,0,0-26.62,7.05l14.33-15.24,5.38-5.82a17.47,17.47,0,0,0,3.1-18.35,32.42,32.42,0,0,0-3-5.1c-.46-.68-.91-1.36-1.37-2.1l-16.61-25.33.24-.16-.57-.92a17,17,0,0,0-11.57-7.84,21.73,21.73,0,0,0-3.88-.28l-16.26-.18-31.42-.31L480.54,136a19.19,19.19,0,0,0-4.37.47,18.46,18.46,0,0,0-8.87,4.91,20.69,20.69,0,0,0-3,3.86L458,155.1l-8.48,13.23-4.2,6.61a18.87,18.87,0,0,0-3.16,9.69,17.57,17.57,0,0,0,.06,1.86l-.07.3v.12a2.64,2.64,0,0,0,.25,1.25,19,19,0,0,0,2.21,6.42,19.29,19.29,0,0,0,3.06,4l16.17,17a53,53,0,0,0-21.55-4.52c-1.63,0-3.29.08-4.89.22a50.83,50.83,0,0,0-5.59.82l-1.3.25c-.67.2-1.35.37-2,.54a28.64,28.64,0,0,0-4.44,1.39,61.32,61.32,0,0,0-12.17,5.81,65.47,65.47,0,0,0-29.76,43.22,63.58,63.58,0,0,0,.58,26.77,75.7,75.7,0,0,0,10.76,24.18c.26.39.53.77.8,1.16A51.59,51.59,0,0,0,381,313.78a49.15,49.15,0,0,0-15.68,2.52,51.47,51.47,0,0,0-26.83,20.38,48.65,48.65,0,0,0-7.1,15.77,42.19,42.19,0,0,0-.43,17.62,43.19,43.19,0,0,0,19.55,28.5,40.6,40.6,0,0,0,8,3.83,35.31,35.31,0,0,0,8.88,2c1.05.09,2.1.14,3.16.14a35.68,35.68,0,0,0,6.76-.65,217,217,0,0,0-49.65,83.47l-.44,1.36,1.42.11c1.18.09,2.3.2,3.41.36l.9.12.3-.86a220.12,220.12,0,0,1,77-102.59,218.25,218.25,0,0,1,60.89-31.2A215.19,215.19,0,0,1,538,344.08h.66a215.21,215.21,0,0,1,67.45,10.84A220.29,220.29,0,0,1,730.94,461.08l.31.6h7.86l-.77-1.6a218,218,0,0,0-17-29.48,225.13,225.13,0,0,0-21.84-26.81,35.81,35.81,0,0,0,7.17.72C707.71,404.51,708.73,404.47,709.77,404.38ZM682,378.71a19.14,19.14,0,0,1-1.64-6.28,20,20,0,0,1,3-12.44,20.47,20.47,0,0,1,10.06-8.24,15.9,15.9,0,0,1,6-1.16A16.24,16.24,0,0,1,705.9,352a16.63,16.63,0,0,1,8.86,9.33,3.05,3.05,0,0,0,2.85,2,3,3,0,0,0,.85-.12,3.07,3.07,0,0,0,2.09-3.79,22.71,22.71,0,0,0-11.61-13.79,23.3,23.3,0,0,0-10.61-2.52,22.92,22.92,0,0,0-7.67,1.29,28.55,28.55,0,0,0-19.2,28.8,30.79,30.79,0,0,0,1.26,6.58l-.62-.48A218.52,218.52,0,0,0,619.62,350a75.3,75.3,0,0,0,24.2-4.09,82,82,0,0,0,23.12-12.31A73.43,73.43,0,0,0,679,322a2.25,2.25,0,0,0,.58.07,2.68,2.68,0,0,0,.76-.11,43.74,43.74,0,0,1,12.48-1.79c15.83,0,31,8.27,38.74,21.09,5.54,8.89,7.56,18.48,5.68,27a33.81,33.81,0,0,1-15.55,22.1A31.19,31.19,0,0,1,708.88,395c-.86.08-1.72.12-2.59.12a25.75,25.75,0,0,1-10.57-2.23,26.08,26.08,0,0,1-10.44-8.21A25.2,25.2,0,0,1,682,378.71ZM593.4,340.3a2.7,2.7,0,0,0-1.84.73,219.71,219.71,0,0,0-105.12-.24,2.71,2.71,0,0,0-1.57-.49,2.51,2.51,0,0,0-.78.12,80.35,80.35,0,0,1-22,3.12,68.72,68.72,0,0,1-25.19-4.6,75.52,75.52,0,0,1-20.7-11.62,70.09,70.09,0,0,1-15.68-17.61,71.82,71.82,0,0,1-9.22-21.58,55,55,0,0,1-.3-23,56.18,56.18,0,0,1,25.77-36.8c7.45-4.42,14.66-6.95,21.44-7.54,1.41-.13,2.85-.19,4.26-.19a43.77,43.77,0,0,1,17.88,3.75,44.37,44.37,0,0,1,17.6,13.9,43.68,43.68,0,0,1,5.57,9.92,33.15,33.15,0,0,1,2.7,10.76A34.15,34.15,0,0,1,481,280.12,34.54,34.54,0,0,1,463.83,294a26.9,26.9,0,0,1-10,1.89,28,28,0,0,1-26.31-18.52,3.08,3.08,0,0,0-2.88-2,2.93,2.93,0,0,0-.88.13,3.07,3.07,0,0,0-2.08,3.64v0l.05.16a34.2,34.2,0,0,0,17.56,20.48,35,35,0,0,0,15.6,3.64,34.21,34.21,0,0,0,11.65-2,42.75,42.75,0,0,0,28.55-43.19,47.06,47.06,0,0,0-2.84-12.71L525,279.6c.2.17.38.35.57.53a16.66,16.66,0,0,0,1.3,1.13,18.37,18.37,0,0,0,11.41,3.89,18.06,18.06,0,0,0,8.22-1.94,18.4,18.4,0,0,0,4.29-2.94l.9-.87,7.44-7.83,21.57-22.85,7.2-7.65a47.62,47.62,0,0,0-4.72,17.14,42.74,42.74,0,0,0,28.53,43.19,34.41,34.41,0,0,0,11.67,2A34.94,34.94,0,0,0,639,299.77a34.18,34.18,0,0,0,17.58-20.49l.05-.21a3,3,0,0,0-5.84-1.72,28,28,0,0,1-26.31,18.51,27,27,0,0,1-10-1.9,34.5,34.5,0,0,1-17.14-13.83,34.08,34.08,0,0,1-5.21-21.23,32.91,32.91,0,0,1,2.72-10.81,43.19,43.19,0,0,1,5.52-9.84,44.39,44.39,0,0,1,17.64-13.93,43.76,43.76,0,0,1,17.86-3.74c1.41,0,2.85.06,4.27.19,6.77.59,14,3.12,21.43,7.54a56.18,56.18,0,0,1,25.77,36.81,54.92,54.92,0,0,1-.3,23,72.25,72.25,0,0,1-9.19,21.57,70.51,70.51,0,0,1-15.71,17.62,75.28,75.28,0,0,1-20.71,11.62,68.84,68.84,0,0,1-25.18,4.6,80.46,80.46,0,0,1-21.83-3.06l-.1-.05-.11,0A2.57,2.57,0,0,0,593.4,340.3ZM404.52,379.48a30.86,30.86,0,0,0,1.18-6.34,28.56,28.56,0,0,0-19.18-28.8,23.58,23.58,0,0,0-18.28,1.22,22.65,22.65,0,0,0-11.62,13.8,3,3,0,0,0,2.91,3.91,3,3,0,0,0,2.86-2,16.69,16.69,0,0,1,8.87-9.33,16.14,16.14,0,0,1,6.55-1.38,15.71,15.71,0,0,1,6,1.18,20.35,20.35,0,0,1,10,8.21,20,20,0,0,1,3,12.46,19.34,19.34,0,0,1-1.65,6.34,25.24,25.24,0,0,1-3.3,5.83,26.08,26.08,0,0,1-10.49,8.25,25.55,25.55,0,0,1-10.54,2.22c-.86,0-1.73,0-2.6-.12a31.12,31.12,0,0,1-12.8-4.54,33.7,33.7,0,0,1-15.55-22.12c-1.88-8.52.14-18.11,5.68-27,7.71-12.81,22.92-21.08,38.74-21.08A43.86,43.86,0,0,1,396.82,322a2.79,2.79,0,0,0,.76.11,2.64,2.64,0,0,0,1.38-.39,74.6,74.6,0,0,0,12.36,11.86,81.8,81.8,0,0,0,23.12,12.32,75,75,0,0,0,22.95,4.05A217.36,217.36,0,0,0,405.13,379Zm48.17-189.36c11.21.49,23.15.87,37.32,1.17q2.83,5.76,5.64,11.54c4.84,9.9,9.84,20.14,14.88,30.14l19.15,38.27-18.4-19.41L489.67,229l-21.73-22.69-13.59-14.16A10.14,10.14,0,0,1,452.69,190.12Zm19.06-40.25a11,11,0,0,1,1.76-2.39,9.61,9.61,0,0,1,4.62-2.67,11.18,11.18,0,0,1,2.91-.3l3.92,0,21.24-.19L498,160.75l-10.67,21.74a3.25,3.25,0,0,0-.18.43c-12.85.27-24.57.64-35.75,1.14a9.76,9.76,0,0,1,1.6-4.2l4.19-6.65Zm134.64-.5.23-.15L622.37,175c.41.71.86,1.43,1.32,2.15a27.82,27.82,0,0,1,2.3,4.14,9.52,9.52,0,0,1,.61,2.55c-4.07-.19-8.14-.33-12.2-.48l-7.53-.27-15.58-.33,0-.09c-2.51-6.43-5.12-12.84-7.73-19.25l-8.07-19.78,20.84-.21a12.69,12.69,0,0,1,2,.12,11.62,11.62,0,0,1,2.91.88,11.19,11.19,0,0,1,4.57,4Zm-29.47,45.69c-6,11-12.2,22.44-18.12,33.74l-20.45,38.64-19.81-38.52c-5.37-10.54-11-21.17-16.39-31.45L499,191.42c7.43.13,14.85.19,22.27.26,5.37,0,10.75.09,16.15.16l11.66-.06c9.76,0,19.83-.09,29.78-.22Zm-2.37,47.79L552.69,265.4l-5.62,5.84L567,233.09c5.67-10.76,11.26-21.78,16.67-32.45l4.7-9.23,18.56-.4,7.34-.27c3.69-.13,7.38-.25,11.07-.41a10.29,10.29,0,0,1-1.44,2l-5.46,5.55Zm8-60.25c-12.12-.18-24.42-.23-36.33-.27l-8.89,0q-7.85.09-15.7.15c-8.53.07-17.34.14-26,.3l8.48-19.15,8.43-19.33,35.26-.31,21-.22,7.37,20.89C578.25,170.62,580.38,176.63,582.58,182.6Z" transform="translate(-128.06 -135.97)"/><path class="cls-2" d="M687.82,443.86a187,187,0,0,0-149.16-74.45c-38.79,0-77.18,12.22-108.11,34.26a189,189,0,0,0-41.12,39.76,191,191,0,0,0-14.28,22l-1.86,3.34h10.14l.65-1.07a183.73,183.73,0,0,1,52.61-55.2,181.75,181.75,0,0,1,48.63-23.44A178.62,178.62,0,0,1,538,381.18h1a179.35,179.35,0,0,1,101.39,31.88A182.72,182.72,0,0,1,697.46,477l2.71,5,1.44-5.53a17.45,17.45,0,0,1,2.15-4.94l.69-1.09-.6-1.15A190.16,190.16,0,0,0,687.82,443.86Z" transform="translate(-128.06 -135.97)"/><path class="cls-3" d="M199,518.75a28,28,0,0,0-9.82-7.74,34,34,0,0,0-20.69-2.08,27.27,27.27,0,0,0-5.65,1.93,29.85,29.85,0,0,0-4.32,2.53c-1.24.9-2.31,1.74-3.2,2.53a9.43,9.43,0,0,0-4.54-4.91,19.43,19.43,0,0,0-8-1.34H128.06v4.47h1.49a12.07,12.07,0,0,1,5.36,1,6.83,6.83,0,0,1,3.12,3.05,14.47,14.47,0,0,1,1.42,4.76,46.7,46.7,0,0,1,.37,6V607.9h19.35V576.65a16.84,16.84,0,0,0,4.17,2.23,29.68,29.68,0,0,0,4.91,1.56,28.33,28.33,0,0,0,6.55.67,32.74,32.74,0,0,0,14.06-2.83,28.28,28.28,0,0,0,10-7.73,32.27,32.27,0,0,0,6-11.61,53.6,53.6,0,0,0,0-28.58A32.88,32.88,0,0,0,199,518.75Zm-13,37.73a35.13,35.13,0,0,1-2.53,9.45,16,16,0,0,1-4.62,6.25,10.9,10.9,0,0,1-7,2.23,18.54,18.54,0,0,1-5.13-.66,19.68,19.68,0,0,1-3.95-1.57,16.45,16.45,0,0,1-3.57-2.23V528.13a23,23,0,0,0-.15-2.83,14.66,14.66,0,0,0-.45-2.23,14.15,14.15,0,0,1-.44-2.09,28.94,28.94,0,0,1,5.35-4,17.34,17.34,0,0,1,9.08-2.09,9.92,9.92,0,0,1,6.55,2.23,16.24,16.24,0,0,1,4.39,6.25,37.25,37.25,0,0,1,2.46,9.46,94.93,94.93,0,0,1,0,23.66Z" transform="translate(-128.06 -135.97)"/><path class="cls-3" d="M247.87,508.18a76.28,76.28,0,0,0-13.47,1.12q-6.18,1.11-8.85,4.09a12.6,12.6,0,0,0-3.2,7,60.88,60.88,0,0,0-.52,7.89H230a24.1,24.1,0,0,1,2.38-6.78,13.56,13.56,0,0,1,3.43-4.09,10.77,10.77,0,0,1,4.24-2,22.3,22.3,0,0,1,4.84-.52,12.07,12.07,0,0,1,10.41,5.21q3.72,5.2,3.72,18.6H256.8A108,108,0,0,0,237,540.18a35.48,35.48,0,0,0-12.28,4.39,16,16,0,0,0-6.33,7,23.46,23.46,0,0,0-1.78,9.45,18.24,18.24,0,0,0,6.47,14.51q6.48,5.58,18.83,5.58a25.08,25.08,0,0,0,8.18-1.19,18.76,18.76,0,0,0,5.51-2.83,16.65,16.65,0,0,0,4.17-4.16h.74l5.21,6.69h12.65V539.44q0-15.78-8-23.52T247.87,508.18Zm11.16,56a18.51,18.51,0,0,1-3,5,20.41,20.41,0,0,1-3.95,3.32,10.31,10.31,0,0,1-5.73,1.5,8.62,8.62,0,0,1-7.07-3.23q-2.59-3.24-2.6-9.56,0-8,4.69-11.88t15.4-3.91H259Z" transform="translate(-128.06 -135.97)"/><path class="cls-3" d="M330,539.74,321.1,536a29.25,29.25,0,0,1-7.74-4.54,8.16,8.16,0,0,1-2.83-6.48,9.68,9.68,0,0,1,3-7.22q3-2.89,9.67-2.9,8.93,0,13.54,5A23,23,0,0,1,342.53,532h5.21q0-5.65-.45-10.42a11,11,0,0,0-3.13-7.29q-3-2.83-8.85-4.47a57.78,57.78,0,0,0-15.11-1.64,48,48,0,0,0-11.31,1.27,28.08,28.08,0,0,0-9,3.79,18.4,18.4,0,0,0-5.88,6.18,16.94,16.94,0,0,0-2.09,8.56,16.32,16.32,0,0,0,5.06,12.2A46.28,46.28,0,0,0,311,549l7.74,3.28a64.94,64.94,0,0,1,9.53,5.13,8,8,0,0,1,3.87,6.92,9.25,9.25,0,0,1-3.27,7.22q-3.29,2.91-11.61,2.9-8.94,0-13.55-5a23,23,0,0,1-5.8-12.13h-5.21q0,5.66.44,10.42a11.06,11.06,0,0,0,3.13,7.29q3,2.84,8.86,4.46a57.27,57.27,0,0,0,15.1,1.64,55.77,55.77,0,0,0,12.28-1.26,30.44,30.44,0,0,0,9.6-3.8,19.78,19.78,0,0,0,6.33-6.17,15.74,15.74,0,0,0,2.3-8.56q0-7.89-5.21-12.58T330,539.74Z" transform="translate(-128.06 -135.97)"/><path class="cls-3" d="M403.25,572.48a25.91,25.91,0,0,1-3.79,1.34,16.92,16.92,0,0,1-4.54.59,6.53,6.53,0,0,1-5.73-2.9q-2-2.89-2-11.23V516.37h16.37v-6.7H387.18V487.35H375.27l-7.44,8.93v13.39H358.9v6.7h8.93v43q0,10.73,5.73,16.23t15.85,5.5a32.23,32.23,0,0,0,8.71-1,35.43,35.43,0,0,0,6-2.23,23.7,23.7,0,0,0,4.62-3.28l-2.09-4.16A25,25,0,0,1,403.25,572.48Z" transform="translate(-128.06 -135.97)"/><path class="cls-3" d="M436.81,513.84a8.63,8.63,0,0,0-4.17-3.2,18.81,18.81,0,0,0-6.47-1H408.31v4.47h1.49q6.69,0,8.56,4.09A26.54,26.54,0,0,1,420.22,529v50.6h19.34V529a60.85,60.85,0,0,0-.59-9.23A14.29,14.29,0,0,0,436.81,513.84Z" transform="translate(-128.06 -135.97)"/><path class="cls-3" d="M429.89,501.64a8.15,8.15,0,0,0,5.8-2.24,8,8,0,0,0,2.39-6.1,12.22,12.22,0,0,0-2.76-7.89q-2.76-3.42-8.41-3.42a8.16,8.16,0,0,0-5.8,2.23,8,8,0,0,0-2.38,6.1,12.19,12.19,0,0,0,2.75,7.89Q424.24,501.65,429.89,501.64Z" transform="translate(-128.06 -135.97)"/><path class="cls-3" d="M497.31,508.18a42.85,42.85,0,0,0-8,.67,39.51,39.51,0,0,0-6,1.64,21.16,21.16,0,0,0-4.47,2.23,32.68,32.68,0,0,0-3.2,2.46,9.36,9.36,0,0,0-4.54-4.24,20.41,20.41,0,0,0-8-1.27H448.34v4.47h1.49a12.07,12.07,0,0,1,5.36,1,6.9,6.9,0,0,1,3.13,3.05,14.71,14.71,0,0,1,1.41,4.76,45,45,0,0,1,.37,6v50.6h19.35V527.89c0-1.2-.05-2.3-.15-3.29a15.56,15.56,0,0,0-.44-2.54q-.3-1.2-.45-2.1a15.46,15.46,0,0,1,5.43-3.29,23.15,23.15,0,0,1,8.26-1.34,13,13,0,0,1,10.12,4.48q4,4.49,4,15.41v44.4h19.35v-44q0-14.43-7.14-20.91T497.31,508.18Z" transform="translate(-128.06 -135.97)"/><path class="cls-3" d="M555.21,501.64a8.17,8.17,0,0,0,5.8-2.24,8,8,0,0,0,2.38-6.1,12.27,12.27,0,0,0-2.75-7.89q-2.76-3.42-8.41-3.42a8.15,8.15,0,0,0-5.8,2.23,8,8,0,0,0-2.39,6.1,12.2,12.2,0,0,0,2.76,7.89C548.63,500.5,551.44,501.64,555.21,501.64Z" transform="translate(-128.06 -135.97)"/><path class="cls-3" d="M562.13,513.84a8.63,8.63,0,0,0-4.17-3.2,18.85,18.85,0,0,0-6.47-1H533.63v4.47h1.48q6.71,0,8.56,4.09A26.38,26.38,0,0,1,545.53,529v50.6h19.35V529a60.85,60.85,0,0,0-.59-9.23A14.29,14.29,0,0,0,562.13,513.84Z" transform="translate(-128.06 -135.97)"/><path class="cls-3" d="M634.69,564.74l-19.8-26.19L629.33,521a22,22,0,0,1,6.84-5.65,17.73,17.73,0,0,1,8-1.79v-3.87h-3a29.11,29.11,0,0,0-6.92.75,19.24,19.24,0,0,0-5.5,2.23,24.65,24.65,0,0,0-4.62,3.64c-1.44,1.44-2.9,3.06-4.39,4.84l-18,22V500.74a60.94,60.94,0,0,0-.59-9.23,14.35,14.35,0,0,0-2.16-5.95,8.63,8.63,0,0,0-4.17-3.2,18.85,18.85,0,0,0-6.47-1H570.54v4.47H572q6.71,0,8.56,4.09a26.38,26.38,0,0,1,1.86,10.79v78.88h19.35V550.45l14.29,18.76q4.9,6.69,10.42,9.3a27.24,27.24,0,0,0,11.76,2.6,43.25,43.25,0,0,0,6-.44,15.87,15.87,0,0,0,4.32-1v-3.57a17.34,17.34,0,0,1-6.55-3.42A41.25,41.25,0,0,1,634.69,564.74Z" transform="translate(-128.06 -135.97)"/><path class="cls-3" d="M684.25,508.18a76.12,76.12,0,0,0-13.47,1.12q-6.18,1.11-8.86,4.09a12.67,12.67,0,0,0-3.2,7,60.88,60.88,0,0,0-.52,7.89h8.18a23.78,23.78,0,0,1,2.39-6.78,13.54,13.54,0,0,1,3.42-4.09,10.84,10.84,0,0,1,4.24-2,22.37,22.37,0,0,1,4.84-.52,12.09,12.09,0,0,1,10.42,5.21q3.72,5.2,3.72,18.6h-2.23a108.23,108.23,0,0,0-19.8,1.49,35.56,35.56,0,0,0-12.28,4.39,16,16,0,0,0-6.32,7A23.29,23.29,0,0,0,653,561a18.27,18.27,0,0,0,6.47,14.51q6.48,5.58,18.83,5.58a25.15,25.15,0,0,0,8.19-1.19,18.69,18.69,0,0,0,5.5-2.83,16.65,16.65,0,0,0,4.17-4.16h.75l5.21,6.69h12.65V539.44q0-15.78-8-23.52T684.25,508.18Zm11.16,56a18.79,18.79,0,0,1-3,5,20.34,20.34,0,0,1-3.94,3.32,10.31,10.31,0,0,1-5.73,1.5,8.6,8.6,0,0,1-7.07-3.23q-2.61-3.24-2.61-9.56,0-8,4.69-11.88t15.41-3.91h2.23Z" transform="translate(-128.06 -135.97)"/><path class="cls-3" d="M786.34,513.62a23.86,23.86,0,0,0-9.08-4.25,44.19,44.19,0,0,0-10.12-1.19,23,23,0,0,0-6.69.9,31.34,31.34,0,0,0-5.06,1.93,40.45,40.45,0,0,0-4.62,2.83v-13.1a60.94,60.94,0,0,0-.59-9.23,14.35,14.35,0,0,0-2.16-5.95,8.63,8.63,0,0,0-4.17-3.2,18.85,18.85,0,0,0-6.47-1H719.52v4.47H721q6.69,0,8.55,4.09a26.38,26.38,0,0,1,1.86,10.79v78.88h19.35V520.56c1.09-.9,2.23-1.74,3.42-2.54a21,21,0,0,1,3.8-1.87,13,13,0,0,1,4.69-.82,12.59,12.59,0,0,1,5.06,1,10.83,10.83,0,0,1,4.24,3.52,19.43,19.43,0,0,1,3,6.35,36,36,0,0,1,1.11,9.72v43.66h19.35v-44.2q0-8.19-2.53-13.47A22.31,22.31,0,0,0,786.34,513.62Z" transform="translate(-128.06 -135.97)"/><path class="cls-3" d="M820.13,563.55a8.74,8.74,0,0,0-6.7,2.53,10.2,10.2,0,0,0,0,13.1,10.12,10.12,0,0,0,13.39,0,10.17,10.17,0,0,0,0-13.1A8.72,8.72,0,0,0,820.13,563.55Z" transform="translate(-128.06 -135.97)"/><path class="cls-3" d="M865.15,513.84a8.63,8.63,0,0,0-4.17-3.2,18.81,18.81,0,0,0-6.47-1H836.65v4.47h1.49q6.69,0,8.56,4.09A26.56,26.56,0,0,1,848.55,529v50.6H867.9V529a60.85,60.85,0,0,0-.59-9.23A14.29,14.29,0,0,0,865.15,513.84Z" transform="translate(-128.06 -135.97)"/><path class="cls-3" d="M858.23,501.64a8.15,8.15,0,0,0,5.8-2.24,8,8,0,0,0,2.39-6.1,12.22,12.22,0,0,0-2.76-7.89Q860.9,482,855.25,482a8.15,8.15,0,0,0-5.8,2.23,8,8,0,0,0-2.38,6.1,12.19,12.19,0,0,0,2.75,7.89Q852.58,501.65,858.23,501.64Z" transform="translate(-128.06 -135.97)"/><path class="cls-3" d="M948.42,491.51a14.21,14.21,0,0,0-2.16-5.95,8.65,8.65,0,0,0-4.16-3.2,18.91,18.91,0,0,0-6.48-1H917.76v4.47h1.49q6.71,0,8.56,4.09a26.38,26.38,0,0,1,1.86,10.79v11.91a26.92,26.92,0,0,0-4.17-2.23c-1.39-.5-3-1-5-1.49a26,26,0,0,0-6.48-.75A32.85,32.85,0,0,0,900,511a28.42,28.42,0,0,0-10.05,7.74A32.19,32.19,0,0,0,884,530.36a53.6,53.6,0,0,0,0,28.58,33,33,0,0,0,5.88,11.61,27.92,27.92,0,0,0,9.75,7.73,30.87,30.87,0,0,0,13.69,2.83,22.09,22.09,0,0,0,7.66-1.19,19.32,19.32,0,0,0,5.29-2.83,16.77,16.77,0,0,0,4.16-4.16h.75l5.21,6.69H949V500.74A59.52,59.52,0,0,0,948.42,491.51Zm-18.75,73.23a22.86,22.86,0,0,1-3.42,4.91,18.68,18.68,0,0,1-4.1,3.28,11.12,11.12,0,0,1-5.88,1.48,10.17,10.17,0,0,1-6.62-2.23,15.19,15.19,0,0,1-4.39-6.25,39.5,39.5,0,0,1-2.38-9.45,93.67,93.67,0,0,1,0-23.66,35.21,35.21,0,0,1,2.53-9.46,16.2,16.2,0,0,1,4.61-6.25,11,11,0,0,1,7-2.23,16.55,16.55,0,0,1,5.13.75,38.24,38.24,0,0,1,4,1.48,31,31,0,0,1,3.57,2.24Z" transform="translate(-128.06 -135.97)"/><path class="cls-4" d="M538.54,699.11c-8,0-12.17,6.32-12.17,12.57a13.13,13.13,0,0,0,3,8.58,11.65,11.65,0,0,0,9.14,4c8,0,12.17-6.32,12.17-12.56a13.17,13.17,0,0,0-3-8.59A11.65,11.65,0,0,0,538.54,699.11Z" transform="translate(-128.06 -135.97)"/><path class="cls-5" d="M713.23,623.7v0a29.29,29.29,0,0,0-11-9.4,19.66,19.66,0,0,0-14.62-1c-5.24,1.62-9.16,6-9.75,10.81-.72,4.61,1.08,10.47,5.94,12.72l1-2c-3.53-2-4.5-6.62-3.64-10.13a9.91,9.91,0,0,1,7.62-7.33c8-2.2,15.55,3.3,19.46,9.75,4.94,7.57,6.7,15.93,4.72,22.36-2,6.61-8.56,12-16.6,13.64-8.54,1.87-17-1.26-22.61-4.2-7.89-4.14-14.56-10.51-19.48-15.6-1.94-2-3.85-4-5.77-6.1-4.08-4.36-8.3-8.87-13-13.07-8.29-7.4-16.28-12.15-24.43-14.51a53.35,53.35,0,0,0-28.75.55,74.18,74.18,0,0,0-25.09,12.66,61,61,0,0,0-18.1,21.73c-.24.46-.46.94-.69,1.45-.23-.51-.45-1-.68-1.43a60.91,60.91,0,0,0-18.12-21.75,74,74,0,0,0-25.08-12.66,53.29,53.29,0,0,0-28.76-.55c-8.14,2.36-16.13,7.11-24.42,14.52-4.67,4.19-8.89,8.7-13,13.06-1.92,2.06-3.83,4.11-5.77,6.1-4.92,5.09-11.59,11.46-19.48,15.6-5.6,2.94-14.07,6.05-22.62,4.2-8-1.68-14.54-7-16.59-13.64-2-6.43-.22-14.79,4.74-22.39,3.89-6.42,11.4-11.92,19.47-9.72a9.92,9.92,0,0,1,7.6,7.38c.85,3.46-.12,8-3.65,10.08l1,2c4.86-2.25,6.66-8.11,5.94-12.68-.59-4.87-4.51-9.23-9.73-10.85a19.69,19.69,0,0,0-14.62,1,29.22,29.22,0,0,0-11,9.43c-6.46,9.07-8.8,18.91-6.58,27.7,3.06,11.21,13.12,17.46,21.51,19.58,11.18,2.93,21.7-.69,28.55-4.25,8.88-4.52,16.19-11.23,21.61-16.66q-.53,2.07-.84,4.14c-.79,6.08-1,13.17,3.07,19.64,3.84,5.79,10.9,9.27,18.87,9.31a22,22,0,0,0,18.74-10.43,18.66,18.66,0,0,0,2.64-11.18A13.47,13.47,0,0,0,465,651.36a12.66,12.66,0,0,0-11.35-1,7.52,7.52,0,0,0-4.61,5.45,5.43,5.43,0,0,0,1.38,5.14l.65.63,2.13-1.4-.3-.84a2.47,2.47,0,0,1,.22-2.29,2.82,2.82,0,0,1,2.19-1.22,6.33,6.33,0,0,1,5.27,1.64c3.13,2.87,1.91,7.15-.11,10a14.49,14.49,0,0,1-10.77,5.94c-4.72.4-9.41-1.33-11.71-4.34-2.87-3.68-3.07-9.65-2.73-14a36,36,0,0,1,4.83-15.12,39.36,39.36,0,0,1,2.46-3.75c2-2,3.68-3.54,5.25-4.91,7.21-6.3,14-10.28,20.81-12.17,13.89-4,30.93.13,45.59,11A53,53,0,0,1,530,648.46a41.71,41.71,0,0,1,4.16,23.23c-1,8.36-4.86,15.86-10.51,20.57a29.42,29.42,0,0,1-22.23,6.57c-8.18-.8-15.47-6.15-18.17-13.38a13.58,13.58,0,0,1,.88-11.82,12,12,0,0,1,8.84-6.26l-.18-2.24a14.79,14.79,0,0,0-11.92,7.4,17.5,17.5,0,0,0-1.63,14.32c2.7,9,11.27,16.22,21.33,17.88a35.49,35.49,0,0,0,27.48-7,36.26,36.26,0,0,0,10.54-13.43,36.26,36.26,0,0,0,10.54,13.43,35.74,35.74,0,0,0,21.74,7.46,34.44,34.44,0,0,0,5.73-.48c10.07-1.66,18.64-8.85,21.33-17.87a17.43,17.43,0,0,0-1.61-14.3,14.79,14.79,0,0,0-11.93-7.43l-.18,2.24a12,12,0,0,1,8.84,6.26,13.59,13.59,0,0,1,.85,11.88c-2.67,7.17-10,12.52-18.17,13.33a29.43,29.43,0,0,1-22.2-6.58c-5.66-4.71-9.48-12.21-10.51-20.56a41.7,41.7,0,0,1,4.17-23.25,52.94,52.94,0,0,1,15.74-18.34c14.67-10.89,31.71-15,45.6-11,6.79,1.89,13.6,5.87,20.81,12.18,1.57,1.36,3.24,2.92,5.14,4.76a38.45,38.45,0,0,1,2.58,3.91A36,36,0,0,1,641.83,655c.34,4.36.14,10.33-2.73,14-2.3,3-7,4.73-11.73,4.32a14.44,14.44,0,0,1-10.76-6c-2-2.8-3.23-7.08-.06-10a6.36,6.36,0,0,1,5.36-1.6,2.75,2.75,0,0,1,2.06,1.21,2.47,2.47,0,0,1,.22,2.29l-.3.84,2.13,1.4.65-.63a5.43,5.43,0,0,0,1.38-5.14,7.49,7.49,0,0,0-4.57-5.43,12.68,12.68,0,0,0-11.37,1,13.5,13.5,0,0,0-6.45,10.22,18.72,18.72,0,0,0,2.65,11.2A21.85,21.85,0,0,0,627,683.16c8,0,15-3.52,18.9-9.33,4.09-6.45,3.84-13.54,3.05-19.64-.21-1.37-.49-2.75-.84-4.12,5.42,5.44,12.73,12.14,21.6,16.66,6.86,3.56,17.37,7.17,28.55,4.25,8.4-2.12,18.46-8.37,21.52-19.6C722,642.61,719.69,632.77,713.23,623.7Z" transform="translate(-128.06 -135.97)"/></svg>